<?xml version="1.0" encoding="UTF-8" standalone="no"?><!-- Generator: Gravit.io --><svg xmlns="http://www.w3.org/2000/svg" xmlns:xlink="http://www.w3.org/1999/xlink" style="isolation:isolate" viewBox="412 240 406 406" width="406pt" height="406pt"><defs><clipPath id="_clipPath_zv0kacozCsdtGwgTF242HFM1r3rkjyVQ"><rect x="412" y="240" width="406" height="406"/></clipPath></defs><g clip-path="url(#_clipPath_zv0kacozCsdtGwgTF242HFM1r3rkjyVQ)"><g><path d=" M 691.125 392.25 C 691.125 434.293 657.043 468.375 615 468.375 C 572.957 468.375 538.875 434.293 538.875 392.25 C 538.875 350.207 572.957 316.125 615 316.125 C 657.043 316.125 691.125 350.207 691.125 392.25 Z " fill="rgb(159,159,159)"/><path d=" M 412 443 C 412 330.886 502.886 240 615 240 C 727.114 240 818 330.886 818 443 C 818 555.114 727.114 646 615 646 C 502.886 646 412 555.114 412 443 Z  M 615 265.375 C 546.739 265.379 484.518 304.5 454.934 366.017 C 425.349 427.534 433.635 500.563 476.25 553.889 C 494.266 524.86 533.927 493.75 615 493.75 C 696.073 493.75 735.709 524.834 753.751 553.889 C 796.365 500.563 804.651 427.534 775.066 366.017 C 745.482 304.5 683.261 265.379 615 265.375 Z " fill-rule="evenodd" fill="rgb(159,159,159)"/></g></g></svg>